# This file uses centimeters as units for non-parametric coordinates.

mtllib box.mtl
g default
v -0.500000 -0.032893 0.500000
v 0.500000 -0.032893 0.500000
v -0.500000 0.032893 0.500000
v 0.500000 0.032893 0.500000
v -0.500000 0.032893 -0.500000
v 0.500000 0.032893 -0.500000
v -0.500000 -0.032893 -0.500000
v 0.500000 -0.032893 -0.500000
vt 0.375000 0.000000
vt 0.625000 0.000000
vt 0.375000 0.250000
vt 0.625000 0.250000
vt 0.375000 0.500000
vt 0.625000 0.500000
vt 0.375000 0.750000
vt 0.625000 0.750000
vt 0.375000 1.000000
vt 0.625000 1.000000
vt 0.875000 0.000000
vt 0.875000 0.250000
vt 0.125000 0.000000
vt 0.125000 0.250000
vn 0.000000 0.000000 1.000000
vn 0.000000 0.000000 1.000000
vn 0.000000 0.000000 1.000000
vn 0.000000 0.000000 1.000000
vn 0.000000 1.000000 0.000000
vn 0.000000 1.000000 0.000000
vn 0.000000 1.000000 0.000000
vn 0.000000 1.000000 0.000000
vn 0.000000 0.000000 -1.000000
vn 0.000000 0.000000 -1.000000
vn 0.000000 0.000000 -1.000000
vn 0.000000 0.000000 -1.000000
vn 0.000000 -1.000000 0.000000
vn 0.000000 -1.000000 0.000000
vn 0.000000 -1.000000 0.000000
vn 0.000000 -1.000000 0.000000
vn 1.000000 0.000000 0.000000
vn 1.000000 0.000000 0.000000
vn 1.000000 0.000000 0.000000
vn 1.000000 0.000000 0.000000
vn -1.000000 0.000000 0.000000
vn -1.000000 0.000000 0.000000
vn -1.000000 0.000000 0.000000
vn -1.000000 0.000000 0.000000
s off
g box
usemtl initialShadingGroup
f 1/1/1 2/2/2 4/4/3 3/3/4
f 3/3/5 4/4/6 6/6/7 5/5/8
f 5/5/9 6/6/10 8/8/11 7/7/12
f 7/7/13 8/8/14 2/10/15 1/9/16
f 2/2/17 8/11/18 6/12/19 4/4/20
f 7/13/21 1/1/22 3/3/23 5/14/24
g default
v -0.532942 -0.032893 -0.532893
v 0.532942 -0.032893 -0.532893
v -0.532942 -0.032893 -0.467107
v 0.532942 -0.032893 -0.467107
v -0.468528 0.967107 -0.532102
v 0.468528 0.967107 -0.532102
v -0.468528 0.967107 -0.533912
v 0.468528 0.967107 -0.533912
v -0.468528 1.007345 -1.030035
v 0.468528 1.007345 -1.030035
v 0.468528 0.992815 -1.050496
v -0.468528 0.992815 -1.050496
vt 0.375000 0.000000
vt 0.625000 0.000000
vt 0.375000 0.250000
vt 0.625000 0.250000
vt 0.375000 0.500000
vt 0.625000 0.500000
vt 0.375000 0.750000
vt 0.625000 0.750000
vt 0.375000 1.000000
vt 0.625000 1.000000
vt 0.875000 0.000000
vt 0.875000 0.250000
vt 0.125000 0.000000
vt 0.125000 0.250000
vt 0.375000 0.500000
vt 0.625000 0.500000
vt 0.625000 0.750000
vt 0.375000 0.750000
vn 0.000000 -1.000000 0.000000
vn 0.000000 -1.000000 0.000000
vn 0.000000 -1.000000 0.000000
vn 0.000000 -1.000000 0.000000
vn 0.000000 0.064858 0.997894
vn 0.000000 0.064858 0.997894
vn 0.000000 0.064858 0.997894
vn 0.000000 0.064858 0.997894
vn 0.000000 0.815340 -0.578982
vn 0.000000 0.815340 -0.578982
vn 0.000000 0.815340 -0.578982
vn 0.000000 0.815340 -0.578982
vn 0.000000 -0.001020 -0.999999
vn 0.000000 -0.001020 -0.999999
vn 0.000000 -0.001020 -1.000000
vn 0.000000 -0.001020 -1.000000
vn 0.997932 0.064281 -0.000000
vn 0.997932 0.064281 -0.000000
vn 0.997932 0.064281 -0.000000
vn 0.997932 0.064281 -0.000000
vn -0.997932 0.064281 -0.000000
vn -0.997932 0.064281 -0.000000
vn -0.997932 0.064281 -0.000000
vn -0.997932 0.064281 -0.000000
vn 0.000000 0.996751 0.080546
vn 0.000000 0.996751 0.080546
vn 0.000000 0.996751 0.080546
vn 0.000000 0.996751 0.080546
vn 1.000000 -0.000000 -0.000000
vn 1.000000 -0.000000 -0.000000
vn 1.000000 -0.000000 -0.000000
vn 1.000000 -0.000000 -0.000000
vn 0.000000 -0.998764 -0.049702
vn 0.000000 -0.998764 -0.049702
vn 0.000000 -0.998764 -0.049702
vn 0.000000 -0.998764 -0.049702
vn -1.000000 -0.000000 -0.000000
vn -1.000000 -0.000000 -0.000000
vn -1.000000 -0.000000 -0.000000
vn -1.000000 -0.000000 -0.000000
s off
g box pCube2
usemtl initialShadingGroup
f 9/15/25 10/16/26 12/18/27 11/17/28
f 11/17/29 12/18/30 14/20/31 13/19/32
f 17/29/33 18/30/34 19/31/35 20/32/36
f 15/21/37 16/22/38 10/24/39 9/23/40
f 10/16/41 16/25/42 14/26/43 12/18/44
f 15/27/45 9/15/46 11/17/47 13/28/48
f 13/19/49 14/20/50 18/30/51 17/29/52
f 14/20/53 16/22/54 19/31/55 18/30/56
f 16/22/57 15/21/58 20/32/59 19/31/60
f 15/21/61 13/19/62 17/29/63 20/32/64
g default
v 0.467107 -0.032893 0.532942
v 0.467107 -0.032893 -0.532942
v 0.532893 -0.032893 0.532942
v 0.532893 -0.032893 -0.532942
v 0.532893 0.967107 0.532942
v 0.532893 0.967107 -0.532942
v 0.467107 0.967107 0.532942
v 0.467107 0.967107 -0.532942
v 0.903138 0.988644 0.532942
v 0.903138 0.988644 -0.532942
v 0.900049 1.011516 -0.532942
v 0.900049 1.011516 0.532942
vt 0.375000 0.000000
vt 0.625000 0.000000
vt 0.375000 0.250000
vt 0.625000 0.250000
vt 0.375000 0.500000
vt 0.625000 0.500000
vt 0.375000 0.750000
vt 0.625000 0.750000
vt 0.375000 1.000000
vt 0.625000 1.000000
vt 0.875000 0.000000
vt 0.875000 0.250000
vt 0.125000 0.000000
vt 0.125000 0.250000
vt 0.375000 0.500000
vt 0.625000 0.500000
vt 0.625000 0.750000
vt 0.375000 0.750000
vn 0.000000 -1.000000 0.000000
vn 0.000000 -1.000000 0.000000
vn 0.000000 -1.000000 0.000000
vn 0.000000 -1.000000 0.000000
vn 1.000000 0.000000 0.000000
vn 1.000000 0.000000 0.000000
vn 1.000000 0.000000 0.000000
vn 1.000000 0.000000 0.000000
vn 0.991002 0.133844 0.000000
vn 0.991002 0.133844 0.000000
vn 0.991002 0.133844 0.000000
vn 0.991002 0.133844 0.000000
vn -1.000000 -0.000000 -0.000000
vn -1.000000 -0.000000 -0.000000
vn -1.000000 -0.000000 -0.000000
vn -1.000000 -0.000000 -0.000000
vn 0.000000 0.000000 -1.000000
vn 0.000000 0.000000 -1.000000
vn 0.000000 0.000000 -1.000000
vn 0.000000 0.000000 -1.000000
vn -0.000000 -0.000000 1.000000
vn -0.000000 -0.000000 1.000000
vn -0.000000 -0.000000 1.000000
vn -0.000000 -0.000000 1.000000
vn 0.058071 -0.998312 0.000000
vn 0.058071 -0.998312 0.000000
vn 0.058071 -0.998312 0.000000
vn 0.058071 -0.998312 0.000000
vn 0.000000 0.000000 -1.000000
vn 0.000000 0.000000 -1.000000
vn 0.000000 0.000000 -1.000000
vn 0.000000 0.000000 -1.000000
vn -0.102039 0.994780 -0.000000
vn -0.102039 0.994780 -0.000000
vn -0.102039 0.994780 -0.000000
vn -0.102039 0.994780 -0.000000
vn -0.000000 -0.000000 1.000000
vn -0.000000 -0.000000 1.000000
vn -0.000000 -0.000000 1.000000
vn -0.000000 -0.000000 1.000000
s off
g box pCube3
usemtl initialShadingGroup
f 21/33/65 22/34/66 24/36/67 23/35/68
f 23/35/69 24/36/70 26/38/71 25/37/72
f 29/47/73 30/48/74 31/49/75 32/50/76
f 27/39/77 28/40/78 22/42/79 21/41/80
f 22/34/81 28/43/82 26/44/83 24/36/84
f 27/45/85 21/33/86 23/35/87 25/46/88
f 25/37/89 26/38/90 30/48/91 29/47/92
f 26/38/93 28/40/94 31/49/95 30/48/96
f 28/40/97 27/39/98 32/50/99 31/49/100
f 27/39/101 25/37/102 29/47/103 32/50/104
g default
v -0.532942 -0.032893 0.467107
v 0.532942 -0.032893 0.467107
v -0.532942 -0.032893 0.532893
v 0.532942 -0.032893 0.532893
v -0.473752 0.967107 0.534578
v 0.473752 0.967107 0.534578
v -0.473752 0.967107 0.529986
v 0.473752 0.967107 0.529986
v -0.473752 0.989381 1.087071
v 0.473752 0.989381 1.087071
v 0.473752 1.010778 1.082964
v -0.473752 1.010778 1.082964
vt 0.375000 0.000000
vt 0.625000 0.000000
vt 0.375000 0.250000
vt 0.625000 0.250000
vt 0.375000 0.500000
vt 0.625000 0.500000
vt 0.375000 0.750000
vt 0.625000 0.750000
vt 0.375000 1.000000
vt 0.625000 1.000000
vt 0.875000 0.000000
vt 0.875000 0.250000
vt 0.125000 0.000000
vt 0.125000 0.250000
vt 0.375000 0.500000
vt 0.625000 0.500000
vt 0.625000 0.750000
vt 0.375000 0.750000
vn 0.000000 -1.000000 0.000000
vn 0.000000 -1.000000 0.000000
vn 0.000000 -1.000000 0.000000
vn 0.000000 -1.000000 0.000000
vn 0.000000 -0.001685 0.999999
vn 0.000000 -0.001685 0.999999
vn 0.000000 -0.001685 0.999999
vn 0.000000 -0.001685 0.999999
vn 0.000000 0.188514 0.982070
vn 0.000000 0.188514 0.982070
vn 0.000000 0.188514 0.982070
vn 0.000000 0.188514 0.982070
vn 0.000000 0.062755 -0.998029
vn 0.000000 0.062755 -0.998029
vn 0.000000 0.062755 -0.998029
vn 0.000000 0.062755 -0.998029
vn 0.998253 0.059087 -0.000000
vn 0.998253 0.059087 -0.000000
vn 0.998253 0.059087 -0.000000
vn 0.998253 0.059087 -0.000000
vn -0.998253 0.059087 -0.000000
vn -0.998253 0.059087 -0.000000
vn -0.998253 0.059087 -0.000000
vn -0.998253 0.059087 -0.000000
vn 0.000000 -0.999188 0.040282
vn 0.000000 -0.999188 0.040282
vn 0.000000 -0.999188 0.040282
vn 0.000000 -0.999188 0.040282
vn 1.000000 0.000000 0.000000
vn 1.000000 0.000000 0.000000
vn 1.000000 0.000000 0.000000
vn 1.000000 0.000000 0.000000
vn 0.000000 0.996896 -0.078729
vn 0.000000 0.996896 -0.078729
vn 0.000000 0.996896 -0.078729
vn 0.000000 0.996896 -0.078729
vn -1.000000 0.000000 0.000000
vn -1.000000 0.000000 0.000000
vn -1.000000 0.000000 0.000000
vn -1.000000 0.000000 0.000000
s off
g box pCube4
usemtl initialShadingGroup
f 33/51/105 34/52/106 36/54/107 35/53/108
f 35/53/109 36/54/110 38/56/111 37/55/112
f 41/65/113 42/66/114 43/67/115 44/68/116
f 39/57/117 40/58/118 34/60/119 33/59/120
f 34/52/121 40/61/122 38/62/123 36/54/124
f 39/63/125 33/51/126 35/53/127 37/64/128
f 37/55/129 38/56/130 42/66/131 41/65/132
f 38/56/133 40/58/134 43/67/135 42/66/136
f 40/58/137 39/57/138 44/68/139 43/67/140
f 39/57/141 37/55/142 41/65/143 44/68/144
g default
v -0.532893 -0.032893 0.532942
v -0.532893 -0.032893 -0.532942
v -0.467107 -0.032893 0.532942
v -0.467107 -0.032893 -0.532942
v -0.467107 0.967107 0.532942
v -0.467107 0.967107 -0.532942
v -0.532893 0.967107 0.532942
v -0.532893 0.967107 -0.532942
v -0.885143 1.008147 0.532942
v -0.885143 1.008147 -0.532942
v -0.893519 0.992012 -0.532942
v -0.893519 0.992012 0.532942
vt 0.375000 0.000000
vt 0.625000 0.000000
vt 0.375000 0.250000
vt 0.625000 0.250000
vt 0.375000 0.500000
vt 0.625000 0.500000
vt 0.375000 0.750000
vt 0.625000 0.750000
vt 0.375000 1.000000
vt 0.625000 1.000000
vt 0.875000 0.000000
vt 0.875000 0.250000
vt 0.125000 0.000000
vt 0.125000 0.250000
vt 0.375000 0.500000
vt 0.625000 0.500000
vt 0.625000 0.750000
vt 0.375000 0.750000
vn 0.000000 -1.000000 0.000000
vn 0.000000 -1.000000 0.000000
vn 0.000000 -1.000000 0.000000
vn 0.000000 -1.000000 0.000000
vn 1.000000 0.000000 0.000000
vn 1.000000 0.000000 0.000000
vn 1.000000 0.000000 0.000000
vn 1.000000 0.000000 0.000000
vn -0.887537 0.460737 -0.000000
vn -0.887537 0.460737 -0.000000
vn -0.887537 0.460737 -0.000000
vn -0.887537 0.460737 -0.000000
vn -1.000000 -0.000000 -0.000000
vn -1.000000 -0.000000 -0.000000
vn -1.000000 -0.000000 -0.000000
vn -1.000000 -0.000000 -0.000000
vn 0.000000 0.000000 -1.000000
vn 0.000000 0.000000 -1.000000
vn 0.000000 0.000000 -1.000000
vn 0.000000 0.000000 -1.000000
vn -0.000000 -0.000000 1.000000
vn -0.000000 -0.000000 1.000000
vn -0.000000 -0.000000 1.000000
vn -0.000000 -0.000000 1.000000
vn 0.097703 0.995216 0.000000
vn 0.097703 0.995216 0.000000
vn 0.097703 0.995216 0.000000
vn 0.097703 0.995216 0.000000
vn 0.000000 0.000000 -1.000000
vn 0.000000 0.000000 -1.000000
vn 0.000000 0.000000 -1.000000
vn 0.000000 0.000000 -1.000000
vn -0.068896 -0.997624 -0.000000
vn -0.068896 -0.997624 -0.000000
vn -0.068896 -0.997624 -0.000000
vn -0.068896 -0.997624 -0.000000
vn -0.000000 -0.000000 1.000000
vn -0.000000 -0.000000 1.000000
vn -0.000000 -0.000000 1.000000
vn -0.000000 -0.000000 1.000000
s off
g box pCube5
usemtl initialShadingGroup
f 45/69/145 46/70/146 48/72/147 47/71/148
f 47/71/149 48/72/150 50/74/151 49/73/152
f 53/83/153 54/84/154 55/85/155 56/86/156
f 51/75/157 52/76/158 46/78/159 45/77/160
f 46/70/161 52/79/162 50/80/163 48/72/164
f 51/81/165 45/69/166 47/71/167 49/82/168
f 49/73/169 50/74/170 54/84/171 53/83/172
f 50/74/173 52/76/174 55/85/175 54/84/176
f 52/76/177 51/75/178 56/86/179 55/85/180
f 51/75/181 49/73/182 53/83/183 56/86/184
